<svg width="187" height="60" xmlns="http://www.w3.org/2000/svg" fill="none">
 <defs>
  <clipPath id="clip0">
   <rect id="svg_1" x="14" y="14" fill="white" height="31" width="32"/>
  </clipPath>
  <linearGradient y2="0.61014" x2="0.89608" y1="0.10336" x1="0.27282" id="paint0_linear">
   <stop stop-color="#5D59EA"/>
   <stop stop-color="#9A91FF" offset="1"/>
  </linearGradient>
 </defs>
 <g>
  <title>Layer 1</title>
  <path id="svg_2" fill="white" d="m0,30c0,-9.3188 0,-13.9782 1.52241,-17.6537c2.02988,-4.90053 5.92336,-8.79401 10.82389,-10.82389c3.6755,-1.52241 8.3349,-1.52241 17.6537,-1.52241l0,0c9.3188,0 13.9782,0 17.6537,1.52241c4.9005,2.02988 8.794,5.92336 10.8239,10.82389c1.5224,3.6755 1.5224,8.3349 1.5224,17.6537l0,0c0,9.3188 0,13.9782 -1.5224,17.6537c-2.0299,4.9005 -5.9234,8.794 -10.8239,10.8239c-3.6755,1.5224 -8.3349,1.5224 -17.6537,1.5224l0,0c-9.3188,0 -13.9782,0 -17.6537,-1.5224c-4.90053,-2.0299 -8.79401,-5.9234 -10.82389,-10.8239c-1.52241,-3.6755 -1.52241,-8.3349 -1.52241,-17.6537l0,0z"/>
  <g id="svg_3" clip-path="url(#clip0)">
   <path id="svg_4" fill="url(#paint0_linear)" d="m44.5313,31.7861l-8.8582,-15.4942l0.0288,-0.0465c-1.7105,-2.9965 -5.9899,-2.9965 -7.7005,0l-13.5522,23.698c-0.3052,0.5411 -0.4492,1.1171 -0.4492,1.6815c0,1.7629 1.3938,3.3746 3.3405,3.3746c1.1923,0 2.2923,-0.6458 2.8913,-1.6815l10.707,-18.7408c0.3917,-0.6866 1.3708,-0.6866 1.7624,0l3.3578,5.8707c0.3398,0.5935 -0.0864,1.3382 -0.766,1.3382l-3.7725,0c-1.843,0 -3.3348,1.5069 -3.3348,3.3688l0,0.0058c0,1.8619 1.4918,3.3688 3.3348,3.3688l9.1519,0l2.0677,0c2.5054,0 4.072,-2.7404 2.8222,-4.9339l-1.031,-1.8095z"/>
  </g>
  <text stroke="#ffffff" font-weight="bold" transform="matrix(1.21103, 0, 0, 1.21103, -23.2806, -4.67304)" xml:space="preserve" text-anchor="start" font-family="'Assistant'" font-size="24" stroke-width="0" id="svg_7" y="34.79244" x="81.66756" fill="#ffffff">Portfolio</text>
 </g>
</svg>